<?xml version="1.0" encoding="UTF-8"?>
<svg id="Camada_1" xmlns="http://www.w3.org/2000/svg" version="1.1" viewBox="0 0 1080 1080">
  <!-- Generator: Adobe Illustrator 29.1.0, SVG Export Plug-In . SVG Version: 2.1.0 Build 142)  -->
  <g>
    <path d="M296.7,313.2c13.9,0,20,6.4,20,20s-6.1,20-20,20-20-6.7-20-20,5.9-20,20-20ZM281.2,373.8h30.7v133.6h-30.7v-133.6Z"/>
    <path d="M338.7,507.4v-133.6h30.7v18.4c8.3-14.2,21.9-22.4,40.3-22.4,32.3,0,49.7,19,49.7,58h-28c0-17.4-8.5-29.4-28.3-29.4s-33.7,14.4-33.7,41.9v67h-30.7Z"/>
    <path d="M606.6,365.3c-8.5-5.1-19.8-7.5-29.4-7.5s-19,3.2-22.4,13.1c31.5,4,47.3,19.5,47.3,45.7s-20.6,46.7-64.6,46.7-43,.3-43,7.7,11.2,8.3,45.9,11.8c39.3,4.3,68.6,4.8,68.6,40.3s-22.4,40.3-67,40.3-74.3-14.7-74.3-49.4h28c0,17.6,16.6,23.5,47,23.5s40.1-3.2,40.1-14.7-16-9.9-46.7-13.4c-31.3-3.5-67.8-5.3-67.8-35.5s6.7-19.8,17.1-24c-9.9-7.7-15-19-15-33.4,0-41.9,38.7-46.7,71.9-46.7,2.4-19.5,15-34.7,36.3-34.7s20.6,2.9,28,5.9v24.3ZM537.1,437.2c22.2,0,32.9-6.1,32.9-20.8s-12-20.6-34.2-20.6-33.4,6.1-33.4,20.6,13.4,20.8,34.7,20.8Z"/>
    <path d="M694.7,369.8c50.5,0,74.8,24.3,74.8,70.8s-24.3,70.8-74.8,70.8-74.8-24.3-74.8-70.8,24.3-70.8,74.8-70.8ZM694.7,482.6c28.8,0,42.7-14.4,42.7-41.9s-13.9-42.2-42.7-42.2-42.7,14.4-42.7,42.2,13.9,41.9,42.7,41.9Z"/>
  </g>
  <path d="M114.6,377.5h-34.7l49.3,124.7h34.7l-49.3-124.7ZM227.8,377.5l-49.2,124.7h34.7l49.3-124.7h-34.8Z"/>
  <g>
    <path d="M235.9,598.2c46.5,0,67.3,14.7,67.3,49.4h-28c0-18.2-15.5-23.5-44.6-23.5s-30.2,6.9-30.2,13.6,11.2,12.8,41.1,18.2c37.9,6.7,63.3,10.7,63.3,43s-21.4,40.9-61.7,40.9-70-14.7-70-49.4h28c0,17.4,18.4,23.2,45.9,23.2s31-5.6,31-13.9c0-12-15-12.6-43-17.4-29.1-4.5-61.4-12.3-61.4-44.1s21.1-40.1,62.2-40.1Z"/>
    <path d="M350.2,630.3h-32.1v-28h32.1l10.7-53.4h20l-.3,53.4h67v28h-66.8v54c0,13.9,2.4,26.7,18.7,26.7s21.1-5.9,21.1-25.9h28c0,41.4-19,54.8-50.2,54.8s-48.3-15-48.3-51.6v-58Z"/>
    <path d="M496.3,602.2v71.9c0,22.4,6.9,36.9,35.5,36.9s38.7-14.4,38.7-41.9v-66.8h30.7v133.6h-30.7v-18.7c-9.1,14.4-24,22.7-47.3,22.7-38.7,0-57.7-17.6-57.7-63.3v-74.3h30.7Z"/>
    <path d="M733,715.5c-7.7,14.7-21.4,24.3-45.4,24.3-37.1,0-64.9-24.3-64.9-70.8s23.8-70.8,63.8-70.8,38.7,8.5,46.5,23.5v-86.3h30.7v200.3h-30.7v-20.3ZM693.5,711c26.2,0,39.5-14.7,39.5-42.2s-13.4-41.9-39.5-41.9-38.7,14.4-38.7,41.9,13.4,42.2,38.7,42.2Z"/>
    <path d="M805.9,541.6c13.9,0,20,6.4,20,20s-6.1,20-20,20-20-6.7-20-20,5.9-20,20-20ZM790.4,602.2h30.7v133.6h-30.7v-133.6Z"/>
    <path d="M917.3,598.2c50.5,0,74.8,24.3,74.8,70.8s-24.3,70.8-74.8,70.8-74.8-24.3-74.8-70.8,24.3-70.8,74.8-70.8ZM917.3,711c28.8,0,42.7-14.4,42.7-41.9s-13.9-42.2-42.7-42.2-42.7,14.4-42.7,42.2,13.9,41.9,42.7,41.9Z"/>
  </g>
</svg>